/* XPM */
static char * winsound_xpm[] = {
"32 32 5 1",
" 	c None",
".	c #FFFFFF",
"+	c #000000",
"@	c #808080",
"#	c #C0C0C0",
"..+++++++.......................",
".@+++++++@......................",
".+++++++++..................@++.",
".+++++++++................@++@..",
"@+++@.@+++..............@++@....",
"@+++...+++............@++@......",
"+++@...@++..........@++@........",
"+++@....++........@++@..........",
"+++.............@++@............",
"+++...........@++@..............",
"+++.........@++@................",
"+++........++@..................",
"+++.#.....+@....................",
"+++..##.........................",
"+++....##.@@@@@@@@@@@@@@@@@@@@@@",
"+++.....##++++++++++++++++++++++",
"+++...##..@@@@@@@@@@@@@@@@@@@@@@",
"+++.##..........................",
"+++.......+@....................",
"+++.......@++@..................",
"+++.........@++@................",
"+++...........@++@..............",
"+++.............@++@............",
"+++...............@++@..........",
"+++@.....+..........@++@........",
"+++@...@++............@++@......",
"@+++...+++..............@++@....",
"@+++@.@+++................@++@..",
".+++++++++..................@++.",
".+++++++++......................",
".@+++++++@......................",
"..+++++++......................."};
